# xmcd CD database file
#
# Track frame offsets:
#	150
#	29040
#	64380
#	89706
#	108498
#	130152
#	160311
#	185313
#	208506
#	236748
#
# Disc length: 3556 seconds
#
# Revision: 1
# Processed by: cddbd v1.5.1PL0 Copyright (c) Steve Scherf et al.
# Submitted via: CDex 1.50
#
DISCID=930de20a
DTITLE=Jack Brokensha Quartet - And Then I Said
DYEAR=1900
DGENRE=Jazz
TTITLE0=D'jango
TTITLE1=Little Niles
TTITLE2=Uno Se Wopo
TTITLE3=March Of The Siamese Children
TTITLE4=Jazz In Three Quarter Time
TTITLE5=Spring Is Here
TTITLE6=Softly
TTITLE7=Vera Cruz
TTITLE8=Desafinato
TTITLE9=And Then I Said
EXTD=
EXTT0=
EXTT1=
EXTT2=
EXTT3=
EXTT4=
EXTT5=
EXTT6=
EXTT7=
EXTT8=
EXTT9=
PLAYORDER=
